# Blender 5.1.2
# www.blender.org
mtllib thavmometer.mtl
o Cylinder
v 0.467500 0.500000 0.283850
v 0.532500 0.500000 0.283850
v 0.467500 0.347159 0.347159
v 0.532500 0.347159 0.347159
v 0.467500 0.283850 0.500000
v 0.532500 0.283850 0.500000
v 0.467500 0.347159 0.652841
v 0.532500 0.347159 0.652841
v 0.467500 0.500000 0.716150
v 0.532500 0.500000 0.716150
v 0.467500 0.652841 0.652841
v 0.532500 0.652841 0.652841
v 0.467500 0.716150 0.500000
v 0.532500 0.716150 0.500000
v 0.467500 0.652841 0.347159
v 0.532500 0.652841 0.347159
v 0.532500 0.268423 0.268423
v 0.532500 0.500000 0.172500
v 0.532500 0.172500 0.500000
v 0.532500 0.268423 0.731577
v 0.532500 0.500000 0.827500
v 0.532500 0.731577 0.731577
v 0.532500 0.827500 0.500000
v 0.532500 0.731577 0.268423
v 0.467500 0.500000 0.172500
v 0.467500 0.268423 0.268423
v 0.467500 0.172500 0.500000
v 0.467500 0.268423 0.731577
v 0.467500 0.500000 0.827500
v 0.467500 0.731577 0.731577
v 0.467500 0.827500 0.500000
v 0.467500 0.731577 0.268423
v 0.532500 0.347159 0.347159
v 0.532500 0.500000 0.283850
v 0.532500 0.652841 0.347159
v 0.532500 0.716150 0.500000
v 0.532500 0.652841 0.652841
v 0.532500 0.500000 0.716150
v 0.532500 0.347159 0.652841
v 0.532500 0.283850 0.500000
v 0.467500 0.500000 0.283850
v 0.467500 0.347159 0.347159
v 0.467500 0.283850 0.500000
v 0.467500 0.347159 0.652841
v 0.467500 0.500000 0.716150
v 0.467500 0.652841 0.652841
v 0.467500 0.716150 0.500000
v 0.467500 0.652841 0.347159
v 0.500000 0.347159 0.347159
v 0.500000 0.500000 0.283850
v 0.500000 0.652841 0.347159
v 0.500000 0.716150 0.500000
v 0.500000 0.652841 0.652841
v 0.500000 0.500000 0.716150
v 0.500000 0.347159 0.652841
v 0.500000 0.283850 0.500000
v 0.500000 0.500000 0.500000
vn -0.0000 -0.3827 -0.9239
vn -0.0000 -0.9239 -0.3827
vn -0.0000 -0.9239 0.3827
vn -0.0000 -0.3827 0.9239
vn -0.0000 0.3827 0.9239
vn -0.0000 0.9239 0.3827
vn -0.0000 0.9239 -0.3827
vn -0.0000 0.3827 -0.9239
vn 1.0000 -0.0000 -0.0000
vn -1.0000 -0.0000 -0.0000
vt 0.871094 0.902344
vt 0.820312 0.902344
vt 0.820312 0.632812
vt 0.871094 0.632812
vt 0.845703 0.902344
vt 0.845703 0.632812
vt 0.169922 0.814453
vt 0.289062 0.864258
vt 0.289062 0.951172
vt 0.108398 0.875977
vt 0.408203 0.814453
vt 0.469727 0.875977
vt 0.458008 0.695312
vt 0.544922 0.695312
vt 0.408203 0.576172
vt 0.469727 0.514648
vt 0.289062 0.526367
vt 0.289062 0.439453
vt 0.169922 0.576172
vt 0.108398 0.514648
vt 0.120117 0.695312
vt 0.033203 0.695312
vt 0.890625 0.296875
vt 0.843750 0.179688
vt 0.906250 0.125000
vt 0.976562 0.296875
vt 0.843750 0.421875
vt 0.901367 0.478516
vt 0.718750 0.470703
vt 0.723633 0.556641
vt 0.601562 0.421875
vt 0.541016 0.482422
vt 0.550781 0.302734
vt 0.465820 0.302734
vt 0.600586 0.177734
vt 0.540039 0.118164
vt 0.719727 0.127930
vt 0.718750 0.046875
vt 0.232903 0.393060
vt 0.101068 0.338372
vt 0.232904 0.206658
vt 0.046380 0.206536
vt 0.101068 0.074700
vt 0.232903 0.020989
vt 0.364739 0.074700
vt 0.419427 0.206536
vt 0.364739 0.338372
s 0
usemtl Material.001
f 25/1/1 18/2/1 17/3/1 26/4/1
f 26/3/2 17/4/2 19/1/2 27/2/2
f 27/3/3 19/4/3 20/1/3 28/2/3
f 28/1/4 20/2/4 21/3/4 29/4/4
f 29/3/5 21/4/5 22/1/5 30/2/5
f 30/3/6 22/4/6 23/1/6 31/2/6
f 34/5/5 50/2/5 49/3/5 33/6/5
f 31/3/7 23/4/7 24/1/7 32/2/7
f 32/1/8 24/2/8 18/3/8 25/4/8
f 2/7/9 4/8/9 17/9/9 18/10/9
f 4/8/9 6/11/9 19/12/9 17/9/9
f 6/11/9 8/13/9 20/14/9 19/12/9
f 8/13/9 10/15/9 21/16/9 20/14/9
f 10/15/9 12/17/9 22/18/9 21/16/9
f 12/17/9 14/19/9 23/20/9 22/18/9
f 14/19/9 16/21/9 24/22/9 23/20/9
f 16/21/9 2/7/9 18/10/9 24/22/9
f 3/23/10 1/24/10 25/25/10 26/26/10
f 5/27/10 3/23/10 26/26/10 27/28/10
f 7/29/10 5/27/10 27/28/10 28/30/10
f 9/31/10 7/29/10 28/30/10 29/32/10
f 11/33/10 9/31/10 29/32/10 30/34/10
f 13/35/10 11/33/10 30/34/10 31/36/10
f 15/37/10 13/35/10 31/36/10 32/38/10
f 1/24/10 15/37/10 32/38/10 25/25/10
f 35/3/4 51/6/4 50/5/4 34/2/4
f 36/3/3 52/6/3 51/5/3 35/2/3
f 37/3/2 53/6/2 52/5/2 36/2/2
f 38/3/1 54/6/1 53/5/1 37/2/1
f 39/3/8 55/6/8 54/5/8 38/2/8
f 40/5/7 56/2/7 55/3/7 39/6/7
f 33/3/6 49/6/6 56/5/6 40/2/6
f 42/1/5 49/5/5 50/6/5 41/4/5
f 43/1/6 56/5/6 49/6/6 42/4/6
f 44/6/7 55/4/7 56/1/7 43/5/7
f 45/1/8 54/5/8 55/6/8 44/4/8
f 46/1/1 53/5/1 54/6/1 45/4/1
f 47/1/2 52/5/2 53/6/2 46/4/2
f 48/1/3 51/5/3 52/6/3 47/4/3
f 41/1/4 50/5/4 51/6/4 48/4/4
f 51/39/10 50/40/10 57/41/10
f 50/40/10 49/42/10 57/41/10
f 49/42/10 56/43/10 57/41/10
f 56/43/10 55/44/10 57/41/10
f 55/44/10 54/45/10 57/41/10
f 54/45/10 53/46/10 57/41/10
f 53/46/10 52/47/10 57/41/10
f 52/47/10 51/39/10 57/41/10
f 57/41/9 50/40/9 51/39/9
f 57/41/9 49/42/9 50/40/9
f 57/41/9 56/43/9 49/42/9
f 57/41/9 55/44/9 56/43/9
f 57/41/9 54/45/9 55/44/9
f 57/41/9 53/46/9 54/45/9
f 57/41/9 52/47/9 53/46/9
f 57/41/9 51/39/9 52/47/9