# Blender 5.1.2
# www.blender.org
mtllib thavmometer.mtl
o Cylinder
v 0.347159 0.467500 0.652841
v 0.347159 0.532500 0.652841
v 0.283850 0.467500 0.500000
v 0.283850 0.532500 0.500000
v 0.347159 0.467500 0.347159
v 0.347159 0.532500 0.347159
v 0.500000 0.467500 0.283850
v 0.500000 0.532500 0.283850
v 0.652841 0.467500 0.347159
v 0.652841 0.532500 0.347159
v 0.716150 0.467500 0.500000
v 0.716150 0.532500 0.500000
v 0.652841 0.467500 0.652841
v 0.652841 0.532500 0.652841
v 0.500000 0.467500 0.716150
v 0.500000 0.532500 0.716150
v 0.172500 0.532500 0.500000
v 0.268423 0.532500 0.731577
v 0.268423 0.532500 0.268423
v 0.500000 0.532500 0.172500
v 0.731577 0.532500 0.268423
v 0.827500 0.532500 0.500000
v 0.731577 0.532500 0.731577
v 0.500000 0.532500 0.827500
v 0.268423 0.467500 0.731577
v 0.172500 0.467500 0.500000
v 0.268423 0.467500 0.268423
v 0.500000 0.467500 0.172500
v 0.731577 0.467500 0.268423
v 0.827500 0.467500 0.500000
v 0.731577 0.467500 0.731577
v 0.500000 0.467500 0.827500
v 0.283850 0.532500 0.500000
v 0.347159 0.532500 0.652841
v 0.500000 0.532500 0.716150
v 0.652841 0.532500 0.652841
v 0.716150 0.532500 0.500000
v 0.652841 0.532500 0.347159
v 0.500000 0.532500 0.283850
v 0.347159 0.532500 0.347159
v 0.347159 0.467500 0.652841
v 0.283850 0.467500 0.500000
v 0.347159 0.467500 0.347159
v 0.500000 0.467500 0.283850
v 0.652841 0.467500 0.347159
v 0.716150 0.467500 0.500000
v 0.652841 0.467500 0.652841
v 0.500000 0.467500 0.716150
v 0.283850 0.500000 0.500000
v 0.347159 0.500000 0.652841
v 0.500000 0.500000 0.716150
v 0.652841 0.500000 0.652841
v 0.716150 0.500000 0.500000
v 0.652841 0.500000 0.347159
v 0.500000 0.500000 0.283850
v 0.347159 0.500000 0.347159
v 0.500000 0.500000 0.500000
vn -0.9239 -0.0000 0.3827
vn -0.9239 -0.0000 -0.3827
vn -0.3827 -0.0000 -0.9239
vn 0.3827 -0.0000 -0.9239
vn 0.9239 -0.0000 -0.3827
vn 0.9239 -0.0000 0.3827
vn 0.3827 -0.0000 0.9239
vn -0.3827 -0.0000 0.9239
vn -0.0000 1.0000 -0.0000
vn -0.0000 -1.0000 -0.0000
vt 0.700195 0.848637
vt 0.647461 0.848637
vt 0.647461 0.642583
vt 0.700195 0.642583
vt 0.832031 0.786133
vt 0.858398 0.786133
vt 0.858398 0.922852
vt 0.832031 0.922852
vt 0.464844 0.704102
vt 0.413086 0.578125
vt 0.477539 0.513672
vt 0.556641 0.704102
vt 0.287109 0.526367
vt 0.287109 0.434570
vt 0.160156 0.578125
vt 0.095703 0.513672
vt 0.108398 0.704102
vt 0.016602 0.704102
vt 0.160156 0.831055
vt 0.095703 0.895508
vt 0.287109 0.882812
vt 0.287109 0.974609
vt 0.413086 0.831055
vt 0.477539 0.895508
vt 0.538086 0.287109
vt 0.590820 0.413086
vt 0.525391 0.477539
vt 0.446289 0.287109
vt 0.590820 0.160156
vt 0.525391 0.095703
vt 0.716797 0.108398
vt 0.716797 0.016602
vt 0.842773 0.160156
vt 0.907227 0.095703
vt 0.894531 0.287109
vt 0.986328 0.287109
vt 0.842773 0.413086
vt 0.907227 0.477539
vt 0.716797 0.464844
vt 0.716797 0.556641
vt 0.860352 0.725586
vt 0.833008 0.725586
vt 0.833008 0.588867
vt 0.860352 0.588867
vt 0.112305 0.080078
vt 0.238281 0.027344
vt 0.238281 0.206055
vt 0.364258 0.080078
vt 0.416992 0.206055
vt 0.364258 0.332031
vt 0.238281 0.384766
vt 0.112305 0.332031
vt 0.059570 0.206055
s 0
usemtl Material.001
f 25/1/1 18/2/1 17/3/1 26/4/1
f 26/3/2 17/4/2 19/1/2 27/2/2
f 27/1/3 19/2/3 20/3/3 28/4/3
f 28/3/4 20/4/4 21/1/4 29/2/4
f 29/3/5 21/4/5 22/1/5 30/2/5
f 30/3/6 22/4/6 23/1/6 31/2/6
f 34/5/5 50/6/5 49/7/5 33/8/5
f 31/3/7 23/4/7 24/1/7 32/2/7
f 32/1/8 24/2/8 18/3/8 25/4/8
f 2/9/9 4/10/9 17/11/9 18/12/9
f 4/10/9 6/13/9 19/14/9 17/11/9
f 6/13/9 8/15/9 20/16/9 19/14/9
f 8/15/9 10/17/9 21/18/9 20/16/9
f 10/17/9 12/19/9 22/20/9 21/18/9
f 12/19/9 14/21/9 23/22/9 22/20/9
f 14/21/9 16/23/9 24/24/9 23/22/9
f 16/23/9 2/9/9 18/12/9 24/24/9
f 3/25/10 1/26/10 25/27/10 26/28/10
f 5/29/10 3/25/10 26/28/10 27/30/10
f 7/31/10 5/29/10 27/30/10 28/32/10
f 9/33/10 7/31/10 28/32/10 29/34/10
f 11/35/10 9/33/10 29/34/10 30/36/10
f 13/37/10 11/35/10 30/36/10 31/38/10
f 15/39/10 13/37/10 31/38/10 32/40/10
f 1/26/10 15/39/10 32/40/10 25/27/10
f 35/5/4 51/6/4 50/7/4 34/8/4
f 36/5/3 52/6/3 51/7/3 35/8/3
f 37/5/2 53/6/2 52/7/2 36/8/2
f 38/5/1 54/6/1 53/7/1 37/8/1
f 39/5/8 55/6/8 54/7/8 38/8/8
f 40/7/7 56/8/7 55/5/7 39/6/7
f 33/7/6 49/8/6 56/5/6 40/6/6
f 42/41/5 49/42/5 50/43/5 41/44/5
f 43/41/6 56/42/6 49/43/6 42/44/6
f 44/43/7 55/44/7 56/41/7 43/42/7
f 45/41/8 54/42/8 55/43/8 44/44/8
f 46/43/1 53/44/1 54/41/1 45/42/1
f 47/41/2 52/42/2 53/43/2 46/44/2
f 48/41/3 51/42/3 52/43/3 47/44/3
f 41/41/4 50/42/4 51/43/4 48/44/4
f 51/45/10 50/46/10 57/47/10
f 50/46/10 49/48/10 57/47/10
f 49/48/10 56/49/10 57/47/10
f 56/49/10 55/50/10 57/47/10
f 55/50/10 54/51/10 57/47/10
f 54/51/10 53/52/10 57/47/10
f 53/52/10 52/53/10 57/47/10
f 52/53/10 51/45/10 57/47/10
f 57/47/9 50/46/9 51/45/9
f 57/47/9 49/48/9 50/46/9
f 57/47/9 56/49/9 49/48/9
f 57/47/9 55/50/9 56/49/9
f 57/47/9 54/51/9 55/50/9
f 57/47/9 53/52/9 54/51/9
f 57/47/9 52/53/9 53/52/9
f 57/47/9 51/45/9 52/53/9